<?xml version="1.0" encoding="UTF-8" standalone="no"?>
<svg
   xmlns:dc="http://purl.org/dc/elements/1.1/"
   xmlns:cc="http://creativecommons.org/ns#"
   xmlns:rdf="http://www.w3.org/1999/02/22-rdf-syntax-ns#"
   xmlns:svg="http://www.w3.org/2000/svg"
   xmlns="http://www.w3.org/2000/svg"
   viewBox="0 0 39.583332 37.166668"
   height="37.166668"
   width="39.583332"
   xml:space="preserve"
   id="svg2"
   version="1.1"><metadata
     id="metadata8"><rdf:RDF><cc:Work
         rdf:about=""><dc:format>image/svg+xml</dc:format><dc:type
           rdf:resource="http://purl.org/dc/dcmitype/StillImage" /></cc:Work></rdf:RDF></metadata><defs
     id="defs6"><clipPath
       id="clipPath18"
       clipPathUnits="userSpaceOnUse"><path
         id="path16"
         d="M 0,27.875 H 29.687 V 0 H 0 Z" /></clipPath><clipPath
       id="clipPath42"
       clipPathUnits="userSpaceOnUse"><path
         id="path40"
         d="m 18.114,6.923 c 0,-2.572 2.087,-4.657 4.659,-4.657 v 0 c 2.571,0 4.658,2.085 4.658,4.657 v 0 c 0,2.57 -2.087,4.656 -4.658,4.656 v 0 c -2.572,0 -4.659,-2.086 -4.659,-4.656" /></clipPath><radialGradient
       id="radialGradient56"
       spreadMethod="pad"
       gradientTransform="matrix(6.7537546,0,0,-6.7537546,22.01709,8.0751953)"
       gradientUnits="userSpaceOnUse"
       r="1"
       cy="0"
       cx="0"
       fy="0"
       fx="0"><stop
         id="stop48"
         offset="0"
         style="stop-opacity:1;stop-color:#ffffff" /><stop
         id="stop50"
         offset="0.120879"
         style="stop-opacity:1;stop-color:#ffffff" /><stop
         id="stop52"
         offset="0.67033"
         style="stop-opacity:1;stop-color:#0072bc" /><stop
         id="stop54"
         offset="1"
         style="stop-opacity:1;stop-color:#231916" /></radialGradient></defs><g
     transform="matrix(1.3333333,0,0,-1.3333333,0,37.166667)"
     id="g10"><g
       id="g12"><g
         clip-path="url(#clipPath18)"
         id="g14"><g
           transform="translate(13.3467,9.8213)"
           id="g20"><path
             id="path22"
             style="fill:#0075c2;fill-opacity:1;fill-rule:nonzero;stroke:none"
             d="m 0,0 c 0,2.158 1.341,3.907 3.402,4.505 2.624,0.611 4.994,3.394 4.994,6.516 0,3.724 -3.019,6.746 -6.745,6.746 -3.726,0 -6.746,-3.022 -6.746,-6.746 0,-0.618 0.37,-2.516 0.37,-2.907 0,-2.133 -1.491,-3.968 -3.44,-4.506 -2.975,-0.912 -4.96,-3.399 -4.96,-6.508 0,-3.725 3.02,-6.745 6.745,-6.745 3.726,0 6.746,3.02 6.746,6.745 C 0.366,-2.285 0,-0.408 0,0" /></g><g
           transform="translate(19.709,20.8945)"
           id="g24"><path
             id="path26"
             style="fill:#bbe3f9;fill-opacity:1;fill-rule:nonzero;stroke:none"
             d="m 0,0 c 0,-2.572 -2.086,-4.656 -4.658,-4.656 -2.572,0 -4.657,2.084 -4.657,4.656 0,2.572 2.085,4.658 4.657,4.658 C -2.086,4.658 0,2.572 0,0" /></g><g
           transform="translate(11.624,6.958)"
           id="g28"><path
             id="path30"
             style="fill:#bbe3f9;fill-opacity:1;fill-rule:nonzero;stroke:none"
             d="m 0,0 c 0,-2.572 -2.084,-4.658 -4.657,-4.658 -2.572,0 -4.657,2.086 -4.657,4.658 0,2.572 2.085,4.658 4.657,4.658 C -2.084,4.658 0,2.572 0,0" /></g><g
           transform="translate(29.5176,6.9229)"
           id="g32"><path
             id="path34"
             style="fill:#005184;fill-opacity:1;fill-rule:nonzero;stroke:none"
             d="m 0,0 c 0,-3.727 -3.021,-6.746 -6.745,-6.746 -3.726,0 -6.746,3.019 -6.746,6.746 0,3.725 3.02,6.745 6.746,6.745 C -3.021,6.745 0,3.725 0,0" /></g></g></g><g
       id="g36"><g
         clip-path="url(#clipPath42)"
         id="g38"><g
           id="g44"><g
             id="g46"><path
               id="path58"
               style="fill:url(#radialGradient56);stroke:none"
               d="m 18.114,6.923 c 0,-2.572 2.087,-4.657 4.659,-4.657 v 0 c 2.571,0 4.658,2.085 4.658,4.657 v 0 c 0,2.57 -2.087,4.656 -4.658,4.656 v 0 c -2.572,0 -4.659,-2.086 -4.659,-4.656" /></g></g></g></g></g></svg>